<svg xmlns="http://www.w3.org/2000/svg"  viewBox="0 0 64 64" width="50px" height="50px"><path d="M 16 12 C 12.691 12 10 14.691 10 18 L 10 41.347656 L 10 42.611328 L 14.117188 29.863281 C 15.442187 25.758281 19.232875 23 23.546875 23 L 52.025391 23 C 52.703391 23 53.365 23.087094 54 23.246094 L 54 22 C 54 18.691 51.309 16 48 16 L 29.103516 16 C 28.198516 16 27.312422 15.689047 26.607422 15.123047 L 24.894531 13.753906 C 23.481531 12.623906 21.706484 12 19.896484 12 L 16 12 z M 23.546875 27 C 20.974875 27 18.715781 28.645797 17.925781 31.091797 L 12.246094 48.673828 C 13.275094 49.501828 14.58 50 16 50 L 46.529297 50 C 48.720297 50 50.636875 48.596859 51.296875 46.505859 L 55.8125 32.203125 C 56.1955 30.992125 55.975609 29.658766 55.224609 28.634766 C 54.894609 28.184766 53.856391 27 52.025391 27 L 23.546875 27 z"/></svg>